<?xml version="1.0" encoding="utf-8"?>
<!-- Generator: Adobe Illustrator 21.0.2, SVG Export Plug-In . SVG Version: 6.00 Build 0)  -->
<svg version="1.1" id="Layer_1" xmlns="http://www.w3.org/2000/svg" xmlns:xlink="http://www.w3.org/1999/xlink" x="0px" y="0px"
	 viewBox="0 0 1468 932" style="enable-background:new 0 0 1468 932;" xml:space="preserve">
<style type="text/css">
	.st0{fill:#FFFFFF;}
	.st1{fill:url(#SVGID_1_);}
	.st2{fill:url(#SVGID_2_);}
	.st3{fill:#1B222D;}
</style>
<rect x="-2.3" y="-1.4" class="st0" width="1468" height="932"/>
<g>
	<g>
		<linearGradient id="SVGID_1_" gradientUnits="userSpaceOnUse" x1="406.8606" y1="417.82" x2="406.8606" y2="491.0867">
			<stop  offset="0" style="stop-color:#00FFFF"/>
			<stop  offset="1" style="stop-color:#007FFF"/>
		</linearGradient>
		<path class="st1" d="M413.3,436.9l-18.9,0v35.9h13.9v-22l5,0c7.4,0,13.5,6.1,13.5,13.5c0,7.4-6.1,13.5-13.5,13.5l-23.9,0v-52.1
			c1.4-0.6,2.4-2,2.4-3.7c0-2.2-1.8-4-4-4c-2.2,0-4,1.8-4,4c0,1.6,1,3.1,2.4,3.7v55.2l27,0c9.2,0,16.6-7.5,16.6-16.6
			c0-9.2-7.5-16.6-16.6-16.6l-8.2,0v22h-7.6V440l15.8,0c13.4,0,24.2,10.9,24.2,24.2c0,13.4-10.9,24.2-24.2,24.2l-14.8,0h-19.9v-62.9
			c1.4-0.6,2.4-2,2.4-3.7c0-2.2-1.8-4-4-4s-4,1.8-4,4c0,1.6,1,3.1,2.4,3.7v66h23l14.8,0c15.1,0,27.4-12.3,27.4-27.4
			C440.7,449.2,428.4,436.9,413.3,436.9z M384.8,422c0-1.7,1.4-3.1,3.1-3.1c1.7,0,3.1,1.4,3.1,3.1c0,1.7-1.4,3.1-3.1,3.1
			C386.1,425.1,384.8,423.7,384.8,422z M374,422c0-1.7,1.4-3.1,3.1-3.1c1.7,0,3.1,1.4,3.1,3.1c0,1.7-1.4,3.1-3.1,3.1
			C375.4,425.1,374,423.7,374,422z"/>
		<linearGradient id="SVGID_2_" gradientUnits="userSpaceOnUse" x1="417.6026" y1="419.0814" x2="417.6026" y2="509.5603">
			<stop  offset="0" style="stop-color:#91E400"/>
			<stop  offset="0.128" style="stop-color:#8AE000"/>
			<stop  offset="0.321" style="stop-color:#75D600"/>
			<stop  offset="0.5549" style="stop-color:#53C400"/>
			<stop  offset="0.8184" style="stop-color:#24AD00"/>
			<stop  offset="1" style="stop-color:#009A00"/>
		</linearGradient>
		<path class="st2" d="M413.3,418h-18.9v13.9h18.9c17.9,0,32.4,14.5,32.4,32.4c0,17.9-14.5,32.4-32.4,32.4h-30.1
			c-0.6-1.4-2-2.4-3.7-2.4c-2.2,0-4,1.8-4,4c0,2.2,1.8,4,4,4c1.6,0,3.1-1,3.7-2.4h30.1c19.6,0,35.5-15.9,35.5-35.5
			c0-19.6-15.9-35.5-35.5-35.5h-15.8v-7.6h15.8c23.8,0,43.2,19.4,43.2,43.2c0,23.8-19.4,43.2-43.2,43.2h-30.1
			c-0.6-1.4-2-2.4-3.7-2.4c-2.2,0-4,1.8-4,4c0,2.2,1.8,4,4,4c1.6,0,3.1-1,3.7-2.4h30.1c25.5,0,46.3-20.8,46.3-46.3
			C459.6,438.8,438.8,418,413.3,418z M379.6,501.3c-1.7,0-3.1-1.4-3.1-3.1c0-1.7,1.4-3.1,3.1-3.1c1.7,0,3.1,1.4,3.1,3.1
			C382.6,499.9,381.3,501.3,379.6,501.3z M379.6,512.1c-1.7,0-3.1-1.4-3.1-3.1c0-1.7,1.4-3.1,3.1-3.1c1.7,0,3.1,1.4,3.1,3.1
			C382.6,510.7,381.3,512.1,379.6,512.1z"/>
	</g>
	<g>
		<path class="st3" d="M490,420h22.8c10.8,0,18,0.4,21.5,1.1c9.1,1.8,15.9,6.5,20.4,14c3.5,5.9,5.3,13,5.3,21.1
			c0,11.3-2.8,21.5-8.3,30.5c-5.7,9.4-13.3,15.8-22.8,19.3c-5.6,2.1-14,3.1-25.2,3.1H471L490,420z M505.7,436.4l-12,56.5h11.7
			c6,0,10.6-0.4,13.6-1.1c3.1-0.7,6-2.1,8.7-4.2c4-3.1,7.2-7.4,9.6-12.8c2.4-5.4,3.6-11.1,3.6-17.2c0-9.4-3.1-15.7-9.4-18.9
			c-3.1-1.5-8.1-2.3-15-2.3H505.7z"/>
		<path class="st3" d="M601.7,420l-18.9,89.2h-19.2l18.9-89.2H601.7z"/>
		<path class="st3" d="M690.2,461L680,509.2h-12.4l0.1-5.3c0-1.4,0-2.7,0.1-3.9c-6.3,7.5-15.1,11.3-26.3,11.3
			c-11.3,0-20.2-3.4-26.6-10.2c-6.4-6.8-9.6-16.2-9.6-28.2c0-7.9,1.3-15.5,3.9-22.6c2.6-7.1,6.2-13.1,10.9-18.1
			c9-9.6,20.9-14.4,35.5-14.4c11.8,0,21,3.2,27.4,9.6c4.9,4.9,7.7,11.1,8.4,18.7l-18.7,3.2c-0.4-4.4-1.5-7.6-3.3-9.8
			c-3.2-3.9-8.1-5.8-14.8-5.8c-9.1,0-16.4,3.7-21.9,11.2c-2.5,3.4-4.4,7.5-5.8,12.4c-1.4,4.9-2.1,9.9-2.1,14.9
			c0,7.7,2.1,13.7,6.3,17.8c3.6,3.5,8.5,5.3,14.7,5.3c6.4,0,11.5-1.6,15.5-4.8c3.9-3.2,6.9-8.2,8.9-15.2h-20.5l3.1-14.4H690.2z"/>
		<path class="st3" d="M719.3,489.2l-11.3,20h-20.8l52.9-89.2h21.3l14.6,89.2h-19.6l-2.8-20H719.3z M727.4,475h24.3l-4.8-34.5
			L727.4,475z"/>
		<path class="st3" d="M784.6,509.2l18.9-89.2h25.3l8,63.2l34.4-63.2h26.6l-18.9,89.2h-18.3l13.5-63.5l-34.5,63.5h-15.8l-7.6-63.5
			l-13.5,63.5H784.6z"/>
		<path class="st3" d="M897.2,509.2l18.9-89.2h25.3l8,63.2l34.4-63.2h26.6l-18.9,89.2h-18.3l13.5-63.5l-34.5,63.5h-15.8l-7.6-63.5
			l-13.5,63.5H897.2z"/>
		<path class="st3" d="M1032.4,489.2l-11.3,20h-20.8l52.9-89.2h21.3l14.6,89.2h-19.6l-2.8-20H1032.4z M1040.5,475h24.3l-4.8-34.5
			L1040.5,475z"/>
	</g>
</g>
</svg>
