<?xml version="1.0" encoding="utf-8"?>
<!-- Generator: Adobe Illustrator 21.0.2, SVG Export Plug-In . SVG Version: 6.00 Build 0)  -->
<svg version="1.1" id="Warstwa_1" xmlns="http://www.w3.org/2000/svg" xmlns:xlink="http://www.w3.org/1999/xlink" x="0px" y="0px"
	 viewBox="0 0 640 480" style="enable-background:new 0 0 640 480;" xml:space="preserve">
<style type="text/css">
	.st0{fill:url(#SVGID_1_);}
	.st1{fill:url(#SVGID_2_);}
</style>
<g>
	<linearGradient id="SVGID_1_" gradientUnits="userSpaceOnUse" x1="295.7047" y1="120.5509" x2="295.7047" y2="303.3321">
		<stop  offset="0" style="stop-color:#00FFFF"/>
		<stop  offset="1" style="stop-color:#007FFF"/>
	</linearGradient>
	<path class="st0" d="M311.7,168.2l-47.2,0v89.5h34.6v-54.8l12.6,0c18.6,0,33.7,15.1,33.7,33.7c0,18.6-15.1,33.7-33.7,33.7l-59.7,0
		v-130c3.6-1.5,6.1-5,6.1-9.2c0-5.5-4.5-10-10-10c-5.5,0-10,4.5-10,10c0,4.1,2.5,7.6,6.1,9.2V278l67.5,0c22.9,0,41.5-18.6,41.5-41.5
		c0-22.9-18.6-41.5-41.5-41.5l-20.4,0v54.8h-19V176l39.4,0c33.4,0,60.5,27.1,60.5,60.5c0,33.4-27.1,60.5-60.5,60.5l-37,0h-49.5
		V140.2c3.6-1.5,6.1-5,6.1-9.2c0-5.5-4.5-10-10-10c-5.5,0-10,4.5-10,10c0,4.1,2.5,7.6,6.1,9.2v164.6h57.3l37,0
		c37.7,0,68.3-30.6,68.3-68.3S349.4,168.2,311.7,168.2z M240.6,131.1c0-4.2,3.4-7.6,7.6-7.6c4.2,0,7.6,3.4,7.6,7.6
		c0,4.2-3.4,7.6-7.6,7.6C244,138.7,240.6,135.3,240.6,131.1z M213.7,131.1c0-4.2,3.4-7.6,7.6-7.6c4.2,0,7.6,3.4,7.6,7.6
		c0,4.2-3.4,7.6-7.6,7.6C217.1,138.7,213.7,135.3,213.7,131.1z"/>
	<linearGradient id="SVGID_2_" gradientUnits="userSpaceOnUse" x1="322.5032" y1="123.6978" x2="322.5032" y2="349.4189">
		<stop  offset="0" style="stop-color:#91E400"/>
		<stop  offset="0.128" style="stop-color:#8AE000"/>
		<stop  offset="0.321" style="stop-color:#75D600"/>
		<stop  offset="0.5549" style="stop-color:#53C400"/>
		<stop  offset="0.8184" style="stop-color:#24AD00"/>
		<stop  offset="1" style="stop-color:#009A00"/>
	</linearGradient>
	<path class="st1" d="M311.8,121h-47.3v34.6h47.3c44.6,0,80.8,36.3,80.8,80.8c0,44.6-36.3,80.8-80.8,80.8h-75
		c-1.5-3.6-5-6.1-9.2-6.1c-5.5,0-10,4.5-10,10c0,5.5,4.5,10,10,10c4.1,0,7.6-2.5,9.2-6.1h75c48.9,0,88.6-39.8,88.6-88.6
		c0-48.9-39.8-88.6-88.6-88.6h-39.5v-19h39.5c59.4,0,107.7,48.3,107.7,107.7c0,59.4-48.3,107.7-107.7,107.7h-75
		c-1.5-3.6-5-6.1-9.2-6.1c-5.5,0-10,4.5-10,10c0,5.5,4.5,10,10,10c4.1,0,7.6-2.5,9.2-6.1h75c63.7,0,115.5-51.8,115.5-115.5
		C427.3,172.8,375.5,121,311.8,121z M227.7,328.8c-4.2,0-7.6-3.4-7.6-7.6c0-4.2,3.4-7.6,7.6-7.6c4.2,0,7.6,3.4,7.6,7.6
		C235.3,325.4,231.9,328.8,227.7,328.8z M227.7,355.7c-4.2,0-7.6-3.4-7.6-7.6c0-4.2,3.4-7.6,7.6-7.6c4.2,0,7.6,3.4,7.6,7.6
		C235.3,352.2,231.9,355.7,227.7,355.7z"/>
</g>
</svg>
